# xmcd
#
# Track frame offsets: 
#        150
#        14338
#        28479
#        37635
#        44871
#        61695
#        75428
#        86167
#        100047
#        134908
#        156366
#        202326
#
# Disc length: 2808 seconds
#
# Revision: 1
# Processed by: cddbd v1.5.2PL0 Copyright (c) Steve Scherf et al.
# Submitted via: ExactAudioCopy v0.99pb5
#
DISCID=a50af60c
DTITLE=The Heliocentrics and Melvin Van Peebles - The Last Transmission 
DTITLE=Instrumentals
DYEAR=2014
DGENRE=Funk
TTITLE0=Prologue
TTITLE1=Big Bang Reincarnation
TTITLE2=Searching For Signs Of Life
TTITLE3=Blue Mist
TTITLE4=The Cavern
TTITLE5=Transformation (Part 1)
TTITLE6=Transformation (Part 2)
TTITLE7=Telepathic Routine
TTITLE8=The Dance
TTITLE9=Trust The Cosmos (Believe In The Universe)
TTITLE10=Infinite List (Toss The Dice)
TTITLE11=Epilogue
EXTD=
EXTT0=
EXTT1=
EXTT2=
EXTT3=
EXTT4=
EXTT5=
EXTT6=
EXTT7=
EXTT8=
EXTT9=
EXTT10=
EXTT11=
PLAYORDER=
